<svg width="43" height="43" viewBox="0 0 43 43" fill="none" xmlns="http://www.w3.org/2000/svg">
<path d="M24.0986 1L36.2253 6.77465L42 20.6338L36.2253 36.2253L19.4789 42L6.19718 34.493L1 20.6338L9.08451 5.04225L24.0986 1Z" fill="#9999FF" stroke="#7777FF"/>
<path d="M24 5.5L31.5 9L23 17L11.5 9L24 5.5Z" fill="#EEEEFF"/>
<path d="M26 19.5L34 12L37.5 20.5L35 27L26 19.5Z" fill="#EEEEFF"/>
<path d="M23.5 23L33.5 32L19.5 37L12.5 33L23.5 23Z" fill="#EEEEFF"/>
<path d="M20 19.5L10 12L6 21.5L9.5 30L20 19.5Z" fill="#EEEEFF"/>
<path d="M24 5.5L31.5 9L23 17L11.5 9L24 5.5Z" stroke="#7777FF"/>
<path d="M26 19.5L34 12L37.5 20.5L35 27L26 19.5Z" stroke="#7777FF"/>
<path d="M23.5 23L33.5 32L19.5 37L12.5 33L23.5 23Z" stroke="#7777FF"/>
<path d="M20 19.5L10 12L6 21.5L9.5 30L20 19.5Z" stroke="#7777FF"/>
</svg>
