<svg width="38" height="38" viewBox="0 0 38 38" fill="none" xmlns="http://www.w3.org/2000/svg">
<path d="M1 30.0323L7.3871 23.6452L5.64516 11.4516L14.9355 1L25.9677 1.58065L33.5161 9.70968V20.1613L23.0645 29.4516L10.871 27.129L3.90323 33.5161L1 30.0323Z" fill="#9999FF"/>
<path d="M30.0323 33.5161L32.3548 29.4516L37 31.1935V35.2581L33.5161 37L30.0323 33.5161Z" fill="#9999FF"/>
<path d="M23.0645 29.4516L10.871 27.129L3.90323 33.5161L1 30.0323L7.3871 23.6452L5.64516 11.4516M23.0645 29.4516L33.5161 20.1613V9.70968L25.9677 1.58065L14.9355 1L5.64516 11.4516M23.0645 29.4516L5.64516 11.4516M32.3548 29.4516L30.0323 33.5161L33.5161 37L37 35.2581V31.1935L32.3548 29.4516Z" stroke="#7777FF"/>
</svg>
