<svg width="325" height="325" viewBox="0 0 325 325" fill="none" xmlns="http://www.w3.org/2000/svg">
<path d="M284.7 190.4L324.3 220.1L279.809 279.421L230.144 264.521L229.954 264.464L229.776 264.553L199.776 279.553L199.533 279.674L199.503 279.945L194.552 324.5H125.309L100.447 274.776L100.362 274.606L100.186 274.536L75.1857 264.536L75.0156 264.468L74.8419 264.526L30.2533 279.389L0.619968 220.122L40.3293 185.376L40.5 185.227V185V150V149.793L40.3536 149.646L5.57729 114.87L30.2963 45.657L79.8143 65.4642L80.0385 65.5539L80.2481 65.4341L115.248 45.4341L115.44 45.3244L115.488 45.1085L125.401 0.5H199.599L209.512 45.1085L209.55 45.2804L209.688 45.3904L234.688 65.3904L234.847 65.5178L235.05 65.4975L284.734 60.5291L314.37 109.922L279.646 144.646L279.477 144.816L279.503 145.055L284.503 190.055L284.527 190.27L284.7 190.4Z" fill="#9999FF" stroke="#7777FF"/>
<path d="M115.5 189.706V140.294L160 115.572L204.5 140.294V189.706L160 214.428L115.5 189.706Z" fill="#EEEEFF" stroke="#7777FF"/>
</svg>
